<svg xmlns="http://www.w3.org/2000/svg" xmlns:xlink="http://www.w3.org/1999/xlink" version="1.1" x="0px" y="0px" viewBox="0 0 132 131.5" enable-background="new 0 0 132 131.5" xml:space="preserve"><g display="none"><g display="inline"><rect x="1.677" y="0.968" fill="#000000" stroke="#B1B1B0" stroke-miterlimit="10" width="129" height="129"></rect><g><path fill="#000000" stroke="#B1B1B0" stroke-miterlimit="10" d="M110.677,31.147v-0.381c0-5.412-4.387-9.799-9.797-9.799h-0.383     c-0.953-5.673-5.876-10-11.82-10h-45c-5.943,0-10.865,4.327-11.819,10h-0.382c-5.411,0-9.799,4.387-9.799,9.799v0.381     c-5.672,0.954-10,5.876-10,11.82v45c0,5.945,4.328,10.867,10,11.821v0.381c0,5.412,4.388,9.798,9.799,9.798h0.382     c0.954,5.674,5.876,10,11.819,10h45c5.944,0,10.867-4.326,11.82-10h0.383c5.41,0,9.797-4.386,9.797-9.798v-0.381     c5.674-0.954,10-5.876,10-11.821v-45C120.677,37.023,116.351,32.102,110.677,31.147z"></path></g></g></g><g><path fill="#000000" d="M104.52,100.184H23.957l0.035-8.977c0.371-1.679,0.922-3.27,1.638-4.729   c0.596-1.282,1.421-2.543,2.511-3.826c1.136-1.338,2.615-2.35,4.396-3.006c0.67-0.278,7.537-3.893,12.552-6.531   c3.871-2.037,6.635-3.489,7.996-4.188v-2.496l-0.315-1.195c-0.165-0.585-0.338-1.204-0.527-1.838   c-0.207-0.692-0.451-1.444-0.726-2.245c-1.115-2.098-2.015-4.496-2.672-7.133c-0.094-0.378-0.17-0.758-0.246-1.138l-0.252-1.253   l0.887-0.549c1.343-0.831,2.145-2.261,2.145-3.826v-3.672c0-1.155-0.437-2.249-1.228-3.081l-0.489-0.514l0.087-0.704   c0.498-4.044,1.878-7.292,4.101-9.653c3.152-3.349,7.351-4.24,9.572-4.474l1.271-0.068l2.058,0.164   c2.049,0.307,5.921,1.284,8.834,4.376c2.223,2.362,3.602,5.61,4.1,9.655l0.087,0.704l-0.488,0.514   c-0.792,0.832-1.228,1.926-1.228,3.081v3.672c0,1.068,0.381,2.102,1.072,2.909l0.548,0.641l-0.262,0.801   c-0.527,1.612-1.392,2.949-2.57,3.975c-1.884,1.637-4.6,2.483-8.072,2.518l-0.638,0.006l-0.447-0.455   c-0.782-0.796-1.864-1.253-2.969-1.253c-2.297,0-4.166,1.869-4.166,4.167s1.869,4.167,4.166,4.167c0.923,0,1.832-0.313,2.562-0.884   l0.43-0.335l0.839,0.021c2.324,0,4.488-0.305,6.432-0.905l2.699-0.835l-1.104,3.653c-0.214,0.753-0.217,1.01-0.217,1.021v2.854   c1.482,0.762,4.576,2.406,8.945,4.73c4.485,2.386,10.067,5.356,10.656,5.607c1.794,0.646,3.298,1.658,4.435,2.995   c1.071,1.256,1.897,2.516,2.523,3.851c0.716,1.476,1.249,3.076,1.575,4.74l0.028,0.289V100.184z M46.485,75.771   c-10.078,5.303-12.501,6.557-12.963,6.708c-1.257,0.465-2.286,1.162-3.095,2.115c-0.913,1.075-1.597,2.115-2.091,3.178   c-0.602,1.227-1.062,2.539-1.38,3.927v5.485h74.562v-5.503c-0.279-1.361-0.72-2.668-1.312-3.887   c-0.519-1.107-1.203-2.146-2.099-3.197c-0.807-0.949-1.854-1.646-3.204-2.132c-0.396-0.136-2.354-1.161-11.013-5.768   c-4.271-2.272-9.11-4.848-9.635-5.075l-0.899-0.394l-0.002-4.764c0-0.111,0.007-0.232,0.02-0.362   c-1.491,0.277-3.062,0.421-4.699,0.429c-1.17,0.775-2.557,1.197-3.962,1.197c-3.951,0-7.166-3.215-7.166-7.167   s3.215-7.167,7.166-7.167c1.678,0,3.322,0.608,4.608,1.688c2.45-0.102,4.315-0.695,5.55-1.768c0.592-0.515,1.066-1.165,1.415-1.94   c-0.802-1.214-1.235-2.647-1.235-4.12v-3.672c0-1.674,0.55-3.274,1.562-4.578c-0.476-3.093-1.557-5.553-3.218-7.319   c-2.27-2.409-5.365-3.2-7.043-3.458l-1.703-0.133l-0.998,0.052c-1.376,0.146-5.04,0.798-7.622,3.541   c-1.661,1.765-2.742,4.225-3.218,7.317c1.013,1.304,1.563,2.903,1.563,4.578v3.672c0,2.25-0.989,4.331-2.69,5.747   c0.021,0.1,0.045,0.198,0.068,0.296c0.608,2.438,1.437,4.64,2.461,6.543l0.097,0.223c0.306,0.885,0.575,1.714,0.804,2.477   c0.193,0.65,0.372,1.285,0.548,1.913l0.42,1.784v4.587 M83.944,40.72c-0.356-5.843-2.158-10.519-5.395-13.939   c-5.564-5.883-13.274-5.829-13.836-5.811c-0.588-0.017-8.279-0.062-13.835,5.811c-3.235,3.421-5.038,8.096-5.394,13.939   c-1.063,0.519-1.804,1.6-1.804,2.863v3.672c0,1.766,1.43,3.195,3.193,3.195s3.194-1.429,3.194-3.195v-3.672   c0-1.25-0.726-2.321-1.772-2.845c0.337-5.08,1.872-9.106,4.599-12.003c4.769-5.067,11.722-4.962,11.781-4.958l0.038-1.354   l0.039,1.354c0.054-0.003,7.01-0.108,11.779,4.957c2.727,2.896,4.262,6.923,4.599,12.004c-1.047,0.524-1.771,1.595-1.771,2.845   v3.672c0,1.243,0.716,2.308,1.75,2.836c-0.22,1.462-0.951,4.337-3.412,6.476c-2.407,2.092-5.899,3.025-10.39,2.809   c-0.451-0.984-1.439-1.672-2.594-1.672c-1.579,0-2.858,1.279-2.858,2.858s1.279,2.858,2.858,2.858c0.981,0,1.845-0.494,2.36-1.246   c0.496,0.024,0.993,0.051,1.471,0.051c4.62,0,8.319-1.196,11.03-3.57c3.332-2.92,4.16-6.771,4.367-8.536   c1.065-0.517,1.805-1.599,1.805-2.864v-3.672C85.748,42.319,85.009,41.238,83.944,40.72z"></path><path display="none" fill="#000000" d="M90.969,51.772H40.927v-3h50.042V51.772z M82.177,35.772H49.719v3h32.458V35.772z    M90.969,56.772H40.927v3h50.042V56.772z M90.969,64.772H40.927v3h50.042V64.772z M90.969,72.772H40.927v3h50.042V72.772z    M90.969,80.772H40.927v3h50.042V80.772z M95.497,21.092h-58.64c-2.762,0-5,2.238-5,5v78.75c0,2.762,2.238,5,5,5H81.8   c-2.067-0.482-3.915-1.538-5.358-3H36.857c-1.103,0-2-0.896-2-2v-78.75c0-1.104,0.897-2,2-2h58.64c1.103,0,2,0.896,2,2v78.75   c0,1.104-0.897,2-2,2h-3.312c-1.443,1.462-3.291,2.518-5.358,3h8.67c2.762,0,5-2.238,5-5v-78.75   C100.497,23.331,98.259,21.092,95.497,21.092z M80.278,88.772H40.927v3h35.084C77.166,90.459,78.624,89.422,80.278,88.772z    M90.969,88.772h-2.62c0.944,0.371,1.822,0.869,2.62,1.473V88.772z M92.384,99.071c0,3.711-2.508,6.829-5.92,7.771   c-0.686,0.189-1.404,0.299-2.15,0.299s-1.465-0.109-2.15-0.299c-3.412-0.942-5.92-4.061-5.92-7.771c0-3.23,1.901-6.009,4.642-7.299   C81.927,91.282,83.086,91,84.313,91s2.387,0.282,3.429,0.772C90.482,93.062,92.384,95.84,92.384,99.071z M89.151,95.901   c-0.336-0.335-0.775-0.503-1.214-0.503c-0.439,0-0.879,0.168-1.214,0.503l-3.459,3.461L81.903,98   c-0.336-0.336-0.774-0.503-1.214-0.503S79.812,97.665,79.476,98c-0.671,0.67-0.671,1.758,0,2.428l2.575,2.574   c0.321,0.322,0.759,0.504,1.214,0.504s0.893-0.182,1.214-0.504l4.673-4.674C89.822,97.659,89.822,96.571,89.151,95.901z"></path><path display="none" fill="#000000" d="M47.459,64.786c0-1.415-1.146-2.562-2.561-2.562h-4.098c-1.414,0-2.561,1.146-2.561,2.562   v4.694c0,1.414,1.146,2.561,2.561,2.561h4.098c1.414,0,2.561-1.146,2.561-2.561V64.786z M59.465,64.786   c0-1.415-1.146-2.562-2.561-2.562h-4.098c-1.414,0-2.561,1.146-2.561,2.562v4.694c0,1.414,1.146,2.561,2.561,2.561h4.098   c1.414,0,2.561-1.146,2.561-2.561V64.786z M71.471,64.786c0-1.415-1.146-2.562-2.561-2.562h-4.098   c-1.414,0-2.561,1.146-2.561,2.562v4.694c0,1.414,1.146,2.561,2.561,2.561h4.098c1.414,0,2.561-1.146,2.561-2.561V64.786z    M44.898,78.558c0.309,0,0.561,0.252,0.561,0.561v4.694c0,0.31-0.252,0.562-0.561,0.562h-4.098c-0.31,0-0.561-0.252-0.561-0.562   v-4.694c0-0.309,0.251-0.561,0.561-0.561H44.898 M44.898,76.558h-4.098c-1.414,0-2.561,1.146-2.561,2.561v4.694   c0,1.415,1.146,2.562,2.561,2.562h4.098c1.414,0,2.561-1.146,2.561-2.562v-4.694C47.459,77.705,46.312,76.558,44.898,76.558   L44.898,76.558z M56.904,78.558c0.309,0,0.561,0.252,0.561,0.561v4.694c0,0.31-0.252,0.562-0.561,0.562h-4.098   c-0.309,0-0.561-0.252-0.561-0.562v-4.694c0-0.309,0.252-0.561,0.561-0.561H56.904 M56.904,76.558h-4.098   c-1.414,0-2.561,1.146-2.561,2.561v4.694c0,1.415,1.146,2.562,2.561,2.562h4.098c1.414,0,2.561-1.146,2.561-2.562v-4.694   C59.465,77.705,58.318,76.558,56.904,76.558L56.904,76.558z M68.91,78.558c0.31,0,0.561,0.252,0.561,0.561v4.694   c0,0.31-0.251,0.562-0.561,0.562h-4.098c-0.309,0-0.561-0.252-0.561-0.562v-4.694c0-0.309,0.252-0.561,0.561-0.561H68.91    M68.91,76.558h-4.098c-1.414,0-2.561,1.146-2.561,2.561v4.694c0,1.415,1.146,2.562,2.561,2.562h4.098   c1.414,0,2.561-1.146,2.561-2.562v-4.694C71.471,77.705,70.324,76.558,68.91,76.558L68.91,76.558z M80.916,78.558   c0.311,0,0.562,0.252,0.562,0.561v4.694c0,0.31-0.251,0.562-0.562,0.562h-4.097c-0.31,0-0.562-0.252-0.562-0.562v-4.694   c0-0.309,0.252-0.561,0.562-0.561H80.916 M80.916,76.558h-4.097c-1.415,0-2.562,1.146-2.562,2.561v4.694   c0,1.415,1.146,2.562,2.562,2.562h4.097c1.415,0,2.562-1.146,2.562-2.562v-4.694C83.478,77.705,82.331,76.558,80.916,76.558   L80.916,76.558z M79.053,71.239l5.252-5.253c0.754-0.754,0.754-1.976,0-2.729c-0.754-0.754-1.976-0.754-2.729,0l-3.888,3.889   l-1.53-1.53c-0.754-0.753-1.975-0.753-2.729,0s-0.754,1.976,0,2.729l2.895,2.894c0.361,0.362,0.853,0.565,1.364,0.565   S78.691,71.601,79.053,71.239z M76.865,64.908l0.823,0.824l3.181-3.182c0.11-0.11,0.233-0.203,0.357-0.295   c-0.103-0.012-0.203-0.031-0.311-0.031h-4.097c-1.173,0-2.15,0.793-2.454,1.869c0.142-0.021,0.283-0.043,0.429-0.043   C75.576,64.05,76.312,64.355,76.865,64.908z M79.645,72.041h1.271c1.415,0,2.562-1.146,2.562-2.561v-1.252l-3.718,3.718   C79.725,71.982,79.682,72.007,79.645,72.041z M101.535,49.235c-0.241-0.432-0.666-0.692-1.121-0.751v-5.826v-3v-0.982v-2.314   c0-0.295-0.04-0.58-0.088-0.861c-0.412-2.468-2.541-4.353-5.125-4.353h-4.318c-1.381-3.778-5.006-6.485-9.257-6.485   c-4.249,0-7.869,2.708-9.251,6.485H54.17c-1.381-3.778-5.006-6.485-9.257-6.485c-5.436,0-9.857,4.422-9.857,9.857   c0,0.298,0.019,0.591,0.044,0.882l-0.105,0.048c-0.031,0.014-0.062,0.029-0.094,0.043l-0.127,0.057h0.021   c-1.779,0.83-3.021,2.623-3.021,4.716v12.87c-0.828,0-1.5,0.671-1.5,1.5c0,0.828,0.672,1.5,1.5,1.5v38.44   c0,2.88,2.334,5.214,5.213,5.214h42.163h1h3l4.175-4.353h4.475c2.141-0.397,3.811-2.101,4.17-4.255   c2.422-0.451,4.258-2.566,4.258-5.117V51.686l0.732-0.409C101.682,50.873,101.939,49.958,101.535,49.235z M97.188,35.403   c0.141,0.291,0.227,0.613,0.227,0.958v2.042v1.255v3v7.164l-5.615,3.143v-6.402v-3V42.58v-2.315c0-0.295-0.04-0.579-0.088-0.861   c-0.412-2.468-2.541-4.353-5.125-4.353H74.795c-0.014-0.176-0.026-0.352-0.026-0.531c0-0.125,0.013-0.248,0.019-0.372h20.414   C96.076,34.147,96.828,34.663,97.188,35.403z M81.626,27.662c2.554,0,4.78,1.408,5.96,3.485H75.662   C76.842,29.07,79.07,27.662,81.626,27.662z M71.795,35.05H42.348l2.143-0.903h27.297c-0.004,0.124-0.019,0.247-0.019,0.372   C71.769,34.699,71.786,34.874,71.795,35.05z M44.913,27.662c2.554,0,4.78,1.408,5.96,3.485h-5.271   c-0.676,0-1.316,0.139-1.909,0.372h-0.021l-0.047,0.021c-0.046,0.02-0.09,0.041-0.135,0.061l-5.41,2.451   C38.321,30.489,41.289,27.662,44.913,27.662z M34.773,40.264c0-0.801,0.432-1.497,1.07-1.886c1.505,3.523,5.003,5.998,9.069,5.998   c0.829,0,1.5-0.671,1.5-1.5c0-0.828-0.671-1.5-1.5-1.5c-2.489,0-4.665-1.336-5.867-3.326h33.388   c1.424,3.694,5.002,6.326,9.192,6.326c0.829,0,1.5-0.671,1.5-1.5c0-0.828-0.671-1.5-1.5-1.5c-2.489,0-4.665-1.336-5.867-3.326   h10.827c0.875,0,1.627,0.516,1.986,1.256c0.141,0.291,0.227,0.613,0.227,0.958v2.042v1.256v3v6.572H34.773V40.264z M36.986,96.789   c-1.22,0-2.213-0.993-2.213-2.214v-38.44h54.111v31.547h-3.735c-2.761,0-5,2.238-5,5v4.107H36.986z M83.149,95.671v-2.99   c0-1.103,0.897-2,2-2h2.849L83.149,95.671z M93.056,90.32c0,0.344-0.086,0.666-0.228,0.957c-0.203,0.42-0.549,0.761-1.029,0.982   h-1.428l1.514-1.578v-2.404v-0.596v-1V56.134h0.392l0.779-0.437v32.579V90.32z M97.227,86.064c0,0.841-0.479,1.565-1.171,1.939   V54.019l1.171-0.654V86.064z"></path><path display="none" fill="#000000" d="M101.711,51.722c-0.241-0.432-0.666-0.692-1.121-0.751v-5.826v-3v-0.982v-2.315   c0-0.295-0.039-0.58-0.086-0.861c-0.412-2.467-2.543-4.352-5.127-4.352H91.06c-1.382-3.779-5.006-6.486-9.257-6.486   c-4.25,0-7.87,2.709-9.251,6.486H54.347c-1.382-3.779-5.006-6.486-9.257-6.486c-5.436,0-9.857,4.422-9.857,9.857   c0,0.298,0.019,0.592,0.045,0.883l-0.106,0.048c-0.031,0.013-0.062,0.028-0.093,0.042l-0.127,0.058h0.021   c-1.78,0.829-3.021,2.622-3.021,4.716V55.62c-0.828,0-1.5,0.672-1.5,1.5s0.672,1.5,1.5,1.5v38.441c0,2.879,2.334,5.213,5.213,5.213   h42.162h1h3l4.174-4.352h4.475c2.143-0.398,3.811-2.102,4.171-4.256c2.421-0.449,4.257-2.566,4.257-5.117V54.173l0.732-0.41   C101.857,53.358,102.116,52.444,101.711,51.722z M97.363,37.89c0.141,0.291,0.227,0.613,0.227,0.957v2.043v1.255v3v7.165   l-5.615,3.142v-6.404v-3v-0.982v-2.314c0-0.295-0.039-0.58-0.086-0.861c-0.412-2.468-2.543-4.353-5.127-4.353H74.973   c-0.014-0.176-0.027-0.353-0.027-0.532c0-0.125,0.012-0.247,0.019-0.371h20.413C96.254,36.634,97.006,37.149,97.363,37.89z    M81.803,30.147c2.555,0,4.78,1.408,5.96,3.486H75.838C77.018,31.556,79.247,30.147,81.803,30.147z M71.973,37.537H42.523   l2.142-0.903h27.299c-0.004,0.124-0.019,0.246-0.019,0.371C71.945,37.185,71.963,37.359,71.973,37.537z M45.09,30.147   c2.555,0,4.78,1.408,5.96,3.486h-5.271c-0.675,0-1.315,0.139-1.908,0.372h-0.023l-0.052,0.023c-0.04,0.017-0.078,0.036-0.118,0.054   l-5.422,2.455C38.498,32.975,41.466,30.147,45.09,30.147z M34.951,42.751c0-0.801,0.432-1.497,1.07-1.886   c1.505,3.522,5.002,5.998,9.068,5.998c0.828,0,1.5-0.671,1.5-1.5s-0.672-1.5-1.5-1.5c-2.488,0-4.665-1.337-5.867-3.326H72.61   c1.425,3.693,5.003,6.326,9.192,6.326c0.828,0,1.5-0.671,1.5-1.5s-0.672-1.5-1.5-1.5c-2.488,0-4.665-1.337-5.867-3.326h10.826   c0.877,0,1.629,0.516,1.986,1.256c0.141,0.291,0.227,0.613,0.227,0.958v2.042v1.255v3v6.572H34.951V42.751z M37.164,99.274   c-1.221,0-2.213-0.992-2.213-2.213V58.62h54.111v31.547h-3.736c-2.762,0-5,2.24-5,5v4.107H37.164z M83.326,98.159v-2.992   c0-1.102,0.896-2,2-2h2.85L83.326,98.159z M93.232,92.805c0,0.344-0.086,0.666-0.227,0.957c-0.203,0.42-0.551,0.762-1.031,0.982   h-1.426l1.514-1.578v-2.404v-0.596v-1V58.62h0.391l0.779-0.436v32.578V92.805z M97.402,88.549c0,0.842-0.477,1.566-1.17,1.939   V56.506l1.17-0.656V88.549z M70.963,72.78V67.5c0-1.59,1.288-2.879,2.878-2.879h4.607c1.59,0,2.878,1.289,2.878,2.879v5.279   c0,1.59-1.288,2.879-2.878,2.879h-4.607C72.251,75.659,70.963,74.37,70.963,72.78z M81.326,88.891v-5.275   c0-1.592-1.288-2.881-2.878-2.881h-4.607c-1.59,0-2.878,1.289-2.878,2.881v5.275c0,1.592,1.288,2.881,2.878,2.881h4.607   C80.038,91.772,81.326,90.483,81.326,88.891z M79.078,88.891c0,0.35-0.283,0.633-0.63,0.633h-4.607c-0.348,0-0.63-0.283-0.63-0.633   v-5.275c0-0.348,0.282-0.631,0.63-0.631h4.607c0.347,0,0.63,0.283,0.63,0.631V88.891z M55.465,72.78V67.5   c0-1.59,1.288-2.879,2.879-2.879h4.606c1.59,0,2.879,1.289,2.879,2.879v5.279c0,1.59-1.289,2.879-2.879,2.879h-4.606   C56.753,75.659,55.465,74.37,55.465,72.78z M66.76,81.897c0.848,0.846,0.848,2.221,0,3.068l-5.904,5.904   c-0.407,0.406-0.959,0.637-1.534,0.637s-1.127-0.23-1.533-0.637l-3.254-3.254c-0.848-0.846-0.848-2.221,0-3.068   c0.848-0.846,2.22-0.846,3.067,0l1.72,1.721l4.371-4.371C64.538,81.049,65.913,81.049,66.76,81.897z M50.332,67.5v5.279   c0,1.59-1.289,2.879-2.88,2.879h-4.605c-1.591,0-2.88-1.289-2.88-2.879V67.5c0-1.59,1.289-2.879,2.88-2.879h4.605   C49.043,64.622,50.332,65.911,50.332,67.5z M61.65,91.665l4.179-4.18v1.408c0,1.59-1.289,2.879-2.879,2.879h-1.43   C61.562,91.735,61.61,91.704,61.65,91.665z M50.332,83.616v5.275c0,1.592-1.289,2.881-2.88,2.881h-4.605   c-1.591,0-2.88-1.289-2.88-2.881v-5.275c0-1.592,1.289-2.881,2.88-2.881h4.605C49.043,80.735,50.332,82.024,50.332,83.616z    M62.95,80.735c0.12,0,0.233,0.021,0.35,0.035c-0.141,0.104-0.279,0.207-0.403,0.332l-3.575,3.576l-0.925-0.926   c-0.622-0.621-1.449-0.963-2.329-0.963c-0.163,0-0.323,0.023-0.481,0.047c0.341-1.209,1.44-2.102,2.758-2.102H62.95z"></path></g></svg>